<svg width="240" height="78" viewBox="0 0 240 78" fill="none" xmlns="http://www.w3.org/2000/svg">
<g clip-path="url(#clip0_2215_543)">
<path d="M73.8775 54.7833L81.5031 37.6294H85.4257L93.1259 54.7833H88.9572L82.6547 39.6389H84.2479L77.9454 54.7833H73.8755H73.8775ZM77.7276 51.1071L78.734 48.0919H87.612L88.6426 51.1071H77.7296H77.7276Z" fill="#CA3872"/>
<path d="M93.3237 54.7833V37.6294H96.6091L103.916 49.7345H102.175L109.335 37.6294H112.645V54.7833H108.942L108.893 43.3393H109.63L103.843 52.9452H102.079L96.2179 43.3393H97.0266V54.7833H93.3237Z" fill="#CA3872"/>
<path d="M112.842 54.7833L120.468 37.6294H124.391L132.091 54.7833H127.922L121.619 39.6389H123.213L116.91 54.7833H112.84H112.842ZM116.692 51.1071L117.699 48.0919H126.577L127.607 51.1071H116.694H116.692Z" fill="#CA3872"/>
<path d="M132.288 54.7833V37.6294H139.621C142.007 37.6294 143.863 38.1816 145.188 39.2841C146.513 40.3866 147.174 41.9023 147.174 43.8291C147.174 45.119 146.872 46.2275 146.267 47.1506C145.662 48.0737 144.804 48.7771 143.691 49.2589C142.58 49.7406 141.255 49.9824 139.718 49.9824H134.47L136.285 48.2672V54.7854H132.288V54.7833ZM136.285 48.7046L134.47 46.8181H139.498C140.708 46.8181 141.624 46.5561 142.245 46.034C142.866 45.512 143.177 44.7764 143.177 43.8291C143.177 42.8818 142.866 42.1502 142.245 41.6362C141.624 41.1223 140.708 40.8643 139.498 40.8643H134.47L136.285 38.9778V48.7066V48.7046ZM143.225 54.7833L138.909 48.5595H143.177L147.493 54.7833H143.225Z" fill="#CA3872"/>
<path d="M147.687 54.7833V37.6294H155.02C157.406 37.6294 159.261 38.1816 160.586 39.2841C161.911 40.3866 162.573 41.9023 162.573 43.8291C162.573 45.119 162.27 46.2275 161.665 47.1506C161.06 48.0737 160.203 48.7771 159.09 49.2589C157.978 49.7406 156.653 49.9824 155.116 49.9824H149.869L151.684 48.2672V54.7854H147.687V54.7833ZM151.684 48.7046L149.869 46.8181H154.897C156.107 46.8181 157.022 46.5561 157.643 46.034C158.265 45.512 158.575 44.7764 158.575 43.8291C158.575 42.8818 158.265 42.1502 157.643 41.6362C157.022 41.1223 156.107 40.8643 154.897 40.8643H149.869L151.684 38.9778V48.7066V48.7046ZM158.624 54.7833L154.308 48.5595H158.575L162.891 54.7833H158.624Z" fill="#CA3872"/>
<path d="M163.087 54.7833L170.713 37.6294H174.635L182.335 54.7833H178.167L171.864 39.6389H173.457L167.155 54.7833H163.085H163.087ZM166.937 51.1071L167.943 48.0919H176.821L177.852 51.1071H166.939H166.937Z" fill="#CA3872"/>
<path d="M192.109 55.013C190.951 55.013 189.81 54.8578 188.684 54.5494C187.559 54.2411 186.591 53.7936 185.784 53.2071L187.283 50.2846C187.916 50.7442 188.65 51.113 189.483 51.3891C190.316 51.6673 191.167 51.8043 192.04 51.8043C193.006 51.8043 193.769 51.6108 194.323 51.2218C194.878 50.8328 195.156 50.3068 195.156 49.6417C195.156 48.9766 194.91 48.509 194.418 48.1442C193.926 47.7793 193.133 47.5979 192.04 47.5979H190.304V45.0786L194.916 39.802L195.344 41.1806H186.617V38.0908H198.27V40.586L193.658 45.8384L191.708 44.7218H192.825C194.87 44.7218 196.419 45.1814 197.474 46.1004C198.528 47.0195 199.055 48.1925 199.055 49.6175C199.055 50.5688 198.805 51.4556 198.307 52.28C197.806 53.1043 197.05 53.7654 196.036 54.2652C195.021 54.7651 193.712 55.013 192.111 55.013H192.109Z" fill="#303A69"/>
<path d="M207.433 55.013C205.91 55.013 204.595 54.7006 203.486 54.0738C202.377 53.449 201.515 52.5218 200.906 51.2924C200.295 50.0649 199.991 48.5634 199.991 46.7897C199.991 44.8569 200.352 43.2243 201.072 41.8941C201.794 40.5638 202.792 39.5501 204.069 38.8527C205.345 38.1553 206.824 37.8066 208.504 37.8066C209.375 37.8066 210.216 37.9054 211.025 38.1029C211.833 38.3004 212.531 38.5826 213.118 38.9474L211.692 41.7752C211.232 41.4587 210.74 41.2411 210.218 41.1222C209.696 41.0032 209.147 40.9448 208.576 40.9448C207.15 40.9448 206.009 41.3842 205.152 42.2629C204.295 43.1417 203.867 44.4296 203.867 46.1246C203.867 46.4108 203.875 46.7273 203.891 47.0759C203.907 47.4246 203.954 47.7733 204.034 48.122L202.963 47.1243C203.264 46.5056 203.653 45.9876 204.129 45.5684C204.605 45.1491 205.172 44.8307 205.829 44.617C206.487 44.4034 207.213 44.2966 208.006 44.2966C209.082 44.2966 210.051 44.5102 210.908 44.9375C211.763 45.3648 212.449 45.9674 212.965 46.7434C213.479 47.5194 213.737 48.4304 213.737 49.4764C213.737 50.6011 213.459 51.5806 212.904 52.411C212.35 53.2434 211.597 53.8843 210.646 54.3358C209.694 54.7873 208.625 55.013 207.435 55.013H207.433ZM207.219 52.1369C207.757 52.1369 208.237 52.0381 208.657 51.8406C209.076 51.6431 209.405 51.3528 209.643 50.9739C209.881 50.595 210 50.1576 210 49.6679C210 48.908 209.742 48.3014 209.228 47.8499C208.711 47.3984 208.028 47.1727 207.171 47.1727C206.6 47.1727 206.1 47.2835 205.672 47.5053C205.245 47.727 204.908 48.0252 204.662 48.3961C204.416 48.769 204.293 49.2003 204.293 49.6921C204.293 50.1516 204.412 50.5668 204.65 50.9397C204.888 51.3125 205.22 51.6048 205.648 51.8184C206.075 52.0321 206.6 52.1389 207.217 52.1389L207.219 52.1369Z" fill="#303A69"/>
<path d="M221.806 55.0129C220.443 55.0129 219.227 54.6763 218.156 54.0032C217.085 53.33 216.238 52.3565 215.611 51.0807C214.983 49.8049 214.671 48.2489 214.671 46.4108C214.671 44.5726 214.983 43.0167 215.611 41.7408C216.236 40.465 217.085 39.4915 218.156 38.8184C219.227 38.1452 220.443 37.8086 221.806 37.8086C223.17 37.8086 224.41 38.1452 225.481 38.8184C226.552 39.4915 227.399 40.467 228.026 41.7408C228.651 43.0167 228.966 44.5726 228.966 46.4108C228.966 48.2489 228.653 49.8049 228.026 51.0807C227.399 52.3565 226.552 53.33 225.481 54.0032C224.41 54.6763 223.186 55.0129 221.806 55.0129ZM221.806 51.7801C222.456 51.7801 223.022 51.5946 223.507 51.2218C223.991 50.8489 224.37 50.2684 224.648 49.4743C224.924 48.6822 225.063 47.6604 225.063 46.4088C225.063 45.1571 224.924 44.1353 224.648 43.3432C224.37 42.5511 223.991 41.9686 223.507 41.5957C223.022 41.2229 222.456 41.0374 221.806 41.0374C221.157 41.0374 220.633 41.2229 220.142 41.5957C219.65 41.9686 219.263 42.5511 218.977 43.3432C218.69 44.1353 218.549 45.1571 218.549 46.4088C218.549 47.6604 218.692 48.6822 218.977 49.4743C219.263 50.2664 219.65 50.8489 220.142 51.2218C220.635 51.5946 221.189 51.7801 221.806 51.7801Z" fill="#303A69"/>
<path d="M234.895 44.2906C233.982 44.2906 233.145 44.0729 232.384 43.6355C231.624 43.1982 231.019 42.6137 230.573 41.882C230.126 41.1504 229.904 40.3281 229.904 39.4151C229.904 38.502 230.128 37.6757 230.573 36.934C231.021 36.1923 231.624 35.6078 232.384 35.1805C233.145 34.7532 233.982 34.5396 234.895 34.5396C235.809 34.5396 236.674 34.7532 237.435 35.1805C238.195 35.6078 238.8 36.1923 239.246 36.934C239.693 37.6757 239.915 38.502 239.915 39.4151C239.915 40.3281 239.691 41.1504 239.246 41.882C238.798 42.6137 238.195 43.1982 237.435 43.6355C236.674 44.0729 235.827 44.2906 234.895 44.2906ZM234.924 42.0654C235.418 42.0654 235.865 41.9465 236.265 41.7087C236.664 41.4709 236.979 41.1585 237.207 40.7675C237.435 40.3785 237.55 39.927 237.55 39.413C237.55 38.8991 237.435 38.4396 237.207 38.0304C236.979 37.6213 236.664 37.3028 236.265 37.0751C235.865 36.8473 235.418 36.7324 234.924 36.7324C234.43 36.7324 233.954 36.8473 233.554 37.0751C233.155 37.3028 232.84 37.6172 232.612 38.0163C232.384 38.4154 232.27 38.8809 232.27 39.413C232.27 39.9451 232.384 40.4067 232.612 40.7957C232.84 41.1847 233.155 41.4951 233.554 41.7228C233.954 41.9506 234.409 42.0654 234.924 42.0654Z" fill="#71AA4A"/>
<path d="M13.4824 55.2812C17.0642 56.7727 20.6461 58.2642 24.2279 59.7557L29.8609 71.2521C30.9903 73.2474 32.1197 75.2428 33.2491 77.2402C32.6198 77.1253 31.9886 77.0104 31.3593 76.8955C27.0777 75.9462 23.0662 74.5253 19.2605 72.3626C16.5015 70.7966 14.2205 68.7912 11.9093 66.6446C9.38826 64.3067 7.32103 61.6684 5.61279 58.8305C8.23666 57.6474 10.8605 56.4644 13.4824 55.2812Z" fill="#B2CD3F"/>
<path d="M68.4828 11.7668L49.8334 14.5764C44.4606 12.8854 38.8176 12.6556 33.4004 14.2358L33.0939 13.6432L31.0327 10.8013L53.8831 2.53174C59.3749 4.4505 64.4593 7.61484 68.4848 11.7688L68.4828 11.7668Z" fill="#FDC635"/>
<path d="M13.9683 37.5772C13.5367 37.948 0.949854 46.8102 0.949854 46.8102C-0.193675 42.7852 -0.167457 35.6685 0.788509 31.3211C1.66985 27.3122 2.75288 23.3276 4.82615 19.9375C7.87355 25.8167 10.9209 31.6959 13.9663 37.5752L13.9683 37.5772Z" fill="#2E9AD6"/>
<path d="M53.8809 2.5296C49.1172 4.21456 44.3293 5.93379 39.5172 7.68526C36.6755 8.71922 33.8459 9.75921 31.0305 10.7992C29.6066 9.25332 28.1847 7.70945 26.7609 6.16355L24.1431 2.88433C33.7209 -0.785901 44.2889 -0.973345 53.8809 2.5296Z" fill="#FDEB34"/>
<path d="M24.143 2.88428C24.143 2.88428 29.6065 9.25528 31.0304 10.7992C23.8586 13.3347 8.23035 18.8914 8.23035 18.8914L5.9917 18.0328C10.1443 11.2506 16.711 5.73017 24.143 2.88428Z" fill="#A93A3B"/>
<path d="M14.9423 39.4596C15.1238 43.6297 16.1584 47.7151 17.9695 51.5426L18.6633 52.7418C18.6956 52.8164 13.4821 55.2813 13.4821 55.2813C13.1857 55.4083 2.24651 51.3753 2.24651 51.3753C2.0892 50.8875 1.93593 50.3917 1.78466 49.8838C1.47206 48.8337 1.19576 47.8078 0.949707 46.8102C5.28988 43.7325 9.62802 40.6548 13.9682 37.5771C14.2929 38.204 14.6176 38.8308 14.9443 39.4596H14.9423Z" fill="#30A7E0"/>
<path d="M38.388 64.5952C39.7937 65.1616 44.8862 67.427 46.0257 67.9954L45.9228 68.0619L33.2492 77.2405C33.1504 77.2163 29.861 71.2525 29.861 71.2525L24.228 59.756L25.1174 59.6089C29.0502 62.3923 33.6284 64.0047 38.388 64.5952Z" fill="#0A9750"/>
<path d="M45.9226 68.0596L59.9858 73.9428C53.3848 76.9621 45.969 78.258 38.5613 77.8731C36.8611 77.7844 34.5539 77.5486 33.249 77.2382L45.9226 68.0596Z" fill="#2E9AD6"/>
<path d="M31.0305 10.7993C31.8795 11.928 32.7266 13.0547 33.5757 14.1833C31.5891 14.7356 28.5942 15.822 25.4641 18.0471C22.4106 20.2178 20.4261 22.6182 19.2523 24.2851C18.7441 24.0714 11.3948 20.4758 8.23047 18.8936C15.8298 16.1968 23.4291 13.4981 31.0305 10.8013V10.7993Z" fill="#E73D3F"/>
<path d="M8.2325 18.8936L19.2543 24.285C16.4248 28.3664 14.7306 34.5238 14.9444 39.4598L4.82812 19.9396C5.44325 19.7461 7.71216 19.0487 8.2325 18.8936Z" fill="#156AB3"/>
<path d="M71.1127 34.8242L71.5705 49.8921L60.0586 44.6256C60.0586 44.5551 60.1171 40.9735 60.1473 39.2543C63.8018 37.7769 67.4583 36.3016 71.1127 34.8242Z" fill="#FDEB34"/>
<path d="M60.0264 58.6434L59.986 73.9431L45.9229 68.0598L46.0277 67.9933L54.4096 61.8722L59.9013 58.2705L60.0264 58.6434Z" fill="#96348B"/>
<path d="M71.9957 64.9137C70.6384 66.4576 68.8192 68.2634 66.4716 70.031C64.1079 71.8107 61.8531 73.0624 59.9856 73.9431C59.9573 68.7189 59.9291 63.4927 59.9009 58.2686C60.5745 58.6575 61.2481 59.0465 61.9217 59.4335C65.2797 61.2596 68.6377 63.0856 71.9957 64.9117V64.9137Z" fill="#E83084"/>
<path d="M71.9957 64.9137C69.8256 63.8253 67.597 62.6563 65.3241 61.3966C63.4464 60.3566 61.6394 59.3126 59.9009 58.2686C63.7893 55.4751 67.6797 52.6836 71.5681 49.8901L71.9957 64.9137Z" fill="#E73D3F"/>
<path d="M60.2439 34.0703C60.2439 34.0703 60.1895 39.101 60.1451 39.2522L54.0382 41.4329L41.5481 35.1184L40.5962 34.3444L60.2419 34.0723L60.2439 34.0703Z" fill="#FDC635"/>
<path d="M40.5982 34.3442C45.1723 36.7528 49.7464 39.1633 54.3205 41.5718C51.5857 42.6501 48.8368 43.7244 46.0718 44.7966C44.3091 45.4799 42.5505 46.1591 40.7938 46.8323C40.7313 46.8182 40.6587 46.794 40.5861 46.7456C40.3078 46.5582 40.3017 46.1873 40.3017 46.1369L40.1021 34.9187C40.1021 34.8965 40.1021 34.5639 40.3542 34.4128C40.4469 34.3583 40.5397 34.3463 40.5982 34.3442Z" fill="#96348B"/>
<path d="M71.5705 49.892C67.6821 52.6855 63.7917 55.477 59.9033 58.2705C59.9558 53.7215 60.0082 49.1745 60.0606 44.6255C63.8986 46.381 67.7346 48.1365 71.5726 49.892H71.5705Z" fill="#A93A3B"/>
<path d="M68.4824 11.7666C68.5046 11.7888 68.7123 11.9984 68.6478 12.21C68.6397 12.2362 68.6276 12.2664 68.6034 12.2987C66.1147 14.9914 63.6239 17.6861 61.1352 20.3788C61.0747 20.4454 61.0122 20.4877 60.9597 20.5139C60.5402 20.7195 60.0179 20.3083 59.9917 20.2861C56.9725 17.5975 53.5238 15.7815 49.833 14.5762L68.4824 11.7666Z" fill="#DD3E8E"/>
<path d="M60.0807 44.4135L60.0464 46.554L40.7939 46.8301C45.2087 45.0303 49.6255 43.2325 54.0403 41.4326C54.4054 41.4286 59.04 43.7847 60.0807 44.4135Z" fill="#DD3E8E"/>
<path d="M13.4822 55.2815C13.3612 55.3742 8.11347 57.7404 5.61263 58.8308C4.20692 56.4949 3.00087 54.0259 2.24658 51.3755C2.24658 51.3755 13.1857 55.4085 13.4822 55.2815Z" fill="#0A9750"/>
<path d="M71.1123 34.8241C67.4579 36.3015 63.8014 37.7768 60.147 39.2542C60.1792 37.5269 60.2115 35.7996 60.2458 34.0723L70.2774 33.8345C70.6505 33.8667 70.8199 33.9957 70.9066 34.1086C71.1003 34.3585 71.1144 34.8261 71.1144 34.8261L71.1123 34.8241Z" fill="#FFDE28"/>
<path d="M54.4092 61.8721C51.5796 63.9359 48.7521 65.9978 45.9225 68.0617C43.4116 66.9068 40.8986 65.7519 38.3877 64.595C40.3379 64.7502 42.8146 64.7784 45.6442 64.3915C48.5262 63.9964 50.9443 63.287 52.8018 62.5977C53.3383 62.3558 53.8727 62.1139 54.4092 61.8721Z" fill="#B2CD3F"/>
<path d="M25.1173 59.6066L24.2279 59.7537C20.642 58.2622 17.0561 56.7728 13.4702 55.2813C14.2467 54.8238 15.0978 54.3602 16.0235 53.9067C16.9452 53.4553 17.8285 53.0703 18.6615 52.7397C19.8211 54.7452 21.2914 56.4926 23.159 58.0123L25.1153 59.6046L25.1173 59.6066Z" fill="#304281"/>
<path d="M8.23256 18.8933L4.82617 19.9393L5.9939 18.0347L8.23256 18.8933Z" fill="#28386C"/>
<path d="M60.1449 39.2539L60.0804 44.4136L54.04 41.4327L60.1449 39.2539Z" fill="#E52025"/>
<path d="M74.4605 64.9134C74.0935 64.6977 73.8696 64.3006 73.8777 63.8754C73.8837 63.4481 74.1237 63.0551 74.5029 62.8535C81.2471 62.8535 87.9933 62.8576 94.7375 62.8596C94.2857 63.5448 93.834 64.2301 93.3842 64.9154" fill="#FFDE28"/>
<path d="M206.626 64.9093C207.166 64.2241 207.707 63.5388 208.247 62.8535H228.141C228.565 63.0208 228.845 63.4279 228.849 63.8814C228.853 64.3248 228.589 64.73 228.182 64.9093" fill="#E52025"/>
<path d="M153.975 64.9135C154.473 64.2363 154.971 63.559 155.468 62.8818H172.005C171.449 63.555 170.892 64.2262 170.335 64.8994" fill="#3D4593"/>
<path d="M93.146 64.8993C93.63 64.218 94.112 63.5348 94.5961 62.8535H110.198C109.698 63.5348 109.196 64.218 108.696 64.8993" fill="#EADE20"/>
<path d="M189.88 64.9093C190.514 64.2241 191.147 63.5388 191.78 62.8535H208.423C207.824 63.5388 207.225 64.2241 206.624 64.9093" fill="#C9197A"/>
<path d="M108.569 64.9037L110.071 62.858C114.684 62.858 119.296 62.858 123.909 62.856C123.499 63.5412 123.09 64.2265 122.68 64.9138" fill="#4AAD41"/>
<path d="M122.493 64.9075C122.95 64.2343 123.41 63.5632 123.868 62.89C128.936 62.8759 134.005 62.8618 139.073 62.8477C138.544 63.537 138.018 64.2263 137.49 64.9156" fill="#0A9750"/>
<path d="M170.301 64.8993C170.858 64.2261 171.415 63.5549 171.971 62.8817C178.574 62.8717 185.179 62.8636 191.782 62.8535C191.149 63.5388 190.516 64.2241 189.882 64.9093" fill="#96348B"/>
<path d="M137.262 64.9095C137.772 64.2222 138.28 63.5349 138.79 62.8477C144.351 62.8597 149.909 62.8718 155.469 62.8819C154.971 63.5591 154.473 64.2363 153.977 64.9135" fill="#2E9AD6"/>
</g>
<defs>
<clipPath id="clip0_2215_543">
<rect width="240" height="78" fill="white"/>
</clipPath>
</defs>
</svg>
