<svg width="40" height="40" viewBox="0 0 40 40" fill="none" xmlns="http://www.w3.org/2000/svg">
<g clip-path="url(#clip0_2215_653)">
<path fill-rule="evenodd" clip-rule="evenodd" d="M39.5999 20.1175C39.5999 9.29383 30.8237 0.517578 19.9998 0.517578C9.17615 0.517578 0.399902 9.29383 0.399902 20.1175C0.399902 29.9 7.56607 38.0087 16.9373 39.4804V25.7849H11.9596V20.1175H16.9373V15.7994C16.9373 10.8881 19.8642 8.17291 24.3407 8.17291C26.4854 8.17291 28.7289 8.55616 28.7289 8.55616V13.3801H26.2562C23.8227 13.3801 23.0615 14.8903 23.0615 16.4426V20.1175H28.497L27.629 25.7849H23.0623V39.4821C32.4336 38.0112 39.5999 29.9026 39.5999 20.1175Z" fill="#6C757D"/>
</g>
<defs>
<clipPath id="clip0_2215_653">
<rect width="40" height="40" fill="white"/>
</clipPath>
</defs>
</svg>
