<svg width="40" height="40" viewBox="0 0 40 40" fill="none" xmlns="http://www.w3.org/2000/svg">
<g clip-path="url(#clip0_2215_656)">
<path d="M28.1662 3.66624C30.3304 3.67274 32.404 4.53532 33.9342 6.06557C35.4644 7.59582 36.3271 9.6694 36.3335 11.8336V28.1662C36.3271 30.3304 35.4644 32.404 33.9342 33.9342C32.404 35.4644 30.3304 36.3271 28.1662 36.3335H11.8336C9.6694 36.3271 7.59582 35.4644 6.06557 33.9342C4.53532 32.404 3.67274 30.3304 3.66624 28.1662V11.8336C3.67274 9.6694 4.53532 7.59582 6.06557 6.06557C7.59582 4.53532 9.6694 3.67274 11.8336 3.66624H28.1662ZM28.1662 0.399902H11.8336C5.5449 0.399902 0.399902 5.5449 0.399902 11.8336V28.1662C0.399902 34.4548 5.5449 39.5999 11.8336 39.5999H28.1662C34.4548 39.5999 39.5999 34.4548 39.5999 28.1662V11.8336C39.5999 5.5449 34.4548 0.399902 28.1662 0.399902Z" fill="#6C757D"/>
<path d="M30.6148 11.8323C30.1303 11.8323 29.6568 11.6886 29.2539 11.4193C28.851 11.1502 28.5369 10.7675 28.3515 10.3199C28.1661 9.87235 28.1176 9.37968 28.2121 8.90443C28.3067 8.42926 28.5399 7.99276 28.8825 7.6501C29.2252 7.30751 29.6617 7.07418 30.1369 6.97968C30.6121 6.88518 31.1048 6.93368 31.5523 7.11901C32.0001 7.30451 32.3827 7.61851 32.6518 8.02143C32.921 8.42426 33.0647 8.89793 33.0647 9.38243C33.0654 9.70435 33.0025 10.0233 32.8796 10.3207C32.7568 10.6183 32.5763 10.8886 32.3487 11.1163C32.121 11.3438 31.8507 11.5243 31.5532 11.6472C31.2557 11.77 30.9368 11.8329 30.6148 11.8323Z" fill="#6C757D"/>
<path d="M20.0012 13.4666C21.2933 13.4666 22.5567 13.8498 23.631 14.5677C24.7055 15.2856 25.543 16.306 26.0374 17.4999C26.5319 18.6938 26.6613 20.0075 26.4092 21.2749C26.1571 22.5423 25.5348 23.7064 24.6212 24.6202C23.7073 25.5339 22.5432 26.1562 21.2758 26.4083C20.0084 26.6604 18.6948 26.531 17.5009 26.0364C16.3069 25.542 15.2866 24.7046 14.5686 23.6301C13.8507 22.5557 13.4675 21.2924 13.4675 20.0003C13.4694 18.2679 14.1584 16.6072 15.3833 15.3824C16.6082 14.1574 18.2689 13.4684 20.0012 13.4666ZM20.0012 10.2002C18.0629 10.2002 16.1682 10.775 14.5566 11.8518C12.9449 12.9287 11.6889 14.4593 10.9473 16.2499C10.2055 18.0407 10.0113 20.011 10.3894 21.9121C10.7677 23.8131 11.701 25.5593 13.0715 26.9299C14.4422 28.3004 16.1883 29.2337 18.0893 29.6119C19.9903 29.9901 21.9607 29.7959 23.7515 29.0543C25.5423 28.3125 27.0728 27.0564 28.1496 25.4448C29.2263 23.8332 29.8012 21.9385 29.8012 20.0003C29.8012 17.4012 28.7687 14.9084 26.9308 13.0706C25.093 11.2328 22.6003 10.2002 20.0012 10.2002Z" fill="#6C757D"/>
</g>
<defs>
<clipPath id="clip0_2215_656">
<rect width="40" height="40" fill="white"/>
</clipPath>
</defs>
</svg>
