<svg width="40" height="40" viewBox="0 0 40 40" fill="none" xmlns="http://www.w3.org/2000/svg">
<path d="M32.2018 9.26676C31.9486 9.13601 31.7023 8.99259 31.4635 8.83709C30.7692 8.37809 30.1326 7.83728 29.5674 7.22619C28.1533 5.60825 27.6253 3.96687 27.4308 2.81766H27.4385C27.276 1.86377 27.3433 1.24658 27.3533 1.24658H20.9128V26.1509C20.9128 26.4853 20.9128 26.8158 20.8988 27.1423C20.8988 27.1829 20.8948 27.2204 20.8925 27.2642C20.8925 27.2822 20.8925 27.3009 20.8886 27.3197V27.3338C20.8208 28.2273 20.5343 29.0905 20.0545 29.8473C19.5748 30.6043 18.9163 31.2317 18.1371 31.6743C17.3251 32.1363 16.4066 32.3787 15.4723 32.3774C12.4715 32.3774 10.0395 29.9306 10.0395 26.9088C10.0395 23.8869 12.4715 21.4401 15.4723 21.4401C16.0403 21.4395 16.6048 21.5289 17.1449 21.7049L17.1528 15.1472C15.5133 14.9354 13.8475 15.0657 12.2609 15.5298C10.6743 15.994 9.20101 16.782 7.93411 17.844C6.82403 18.8085 5.89077 19.9594 5.17635 21.2448C4.90447 21.7135 3.8787 23.5971 3.75448 26.6541C3.67636 28.3892 4.19745 30.1868 4.44588 30.9298V30.9454C4.60213 31.3829 5.20759 32.8758 6.1943 34.1344C6.98994 35.144 7.92997 36.0309 8.98409 36.7664V36.7508L8.99976 36.7664C12.1177 38.8852 15.5746 38.7461 15.5746 38.7461C16.1731 38.7218 18.1778 38.7461 20.4543 37.6672C22.9793 36.4711 24.4167 34.6891 24.4167 34.6891C25.335 33.6243 26.0653 32.4109 26.576 31.1008C27.1588 29.5688 27.3533 27.7314 27.3533 26.997V13.7847C27.4315 13.8316 28.4721 14.5198 28.4721 14.5198C28.4721 14.5198 29.9713 15.4808 32.3103 16.1065C33.9884 16.5518 36.2493 16.6456 36.2493 16.6456V10.2519C35.4572 10.3378 33.8486 10.0878 32.2018 9.26676Z" fill="#6C757D"/>
</svg>
