<svg width="307" height="100" viewBox="0 0 307 100" fill="none" xmlns="http://www.w3.org/2000/svg">
<g clip-path="url(#clip0_2059_983)">
<path d="M94.5018 70.2352L104.256 48.2429H109.274L119.124 70.2352H113.791L105.729 50.8191H107.767L99.7054 70.2352H94.4993H94.5018ZM99.4268 65.522L100.714 61.6564H112.07L113.389 65.522H99.4293H99.4268Z" fill="#CA3872"/>
<path d="M119.377 70.2352V48.2429H123.579L132.926 63.7623H130.699L139.858 48.2429H144.091V70.2352H139.355L139.293 55.5633H140.235L132.833 67.8786H130.576L123.079 55.5633H124.113V70.2352H119.377Z" fill="#CA3872"/>
<path d="M144.344 70.2352L154.099 48.2429H159.116L168.966 70.2352H163.634L155.572 50.8191H157.61L149.548 70.2352H144.342H144.344ZM149.269 65.522L150.556 61.6564H161.913L163.231 65.522H149.272H149.269Z" fill="#CA3872"/>
<path d="M169.219 70.2352V48.2429H178.599C181.651 48.2429 184.025 48.9509 185.72 50.3644C187.415 51.7778 188.261 53.721 188.261 56.1912C188.261 57.845 187.874 59.2662 187.1 60.4496C186.326 61.6331 185.229 62.5349 183.805 63.1525C182.384 63.7701 180.689 64.0801 178.723 64.0801H172.01L174.332 61.8812V70.2378H169.219V70.2352ZM174.332 62.4419L172.01 60.0233H178.442C179.99 60.0233 181.161 59.6874 181.956 59.0181C182.75 58.3489 183.148 57.4057 183.148 56.1912C183.148 54.9768 182.75 54.0388 181.956 53.3799C181.161 52.721 179.99 52.3902 178.442 52.3902H172.01L174.332 49.9716V62.4445V62.4419ZM183.209 70.2352L177.689 62.2558H183.148L188.668 70.2352H183.209Z" fill="#CA3872"/>
<path d="M188.916 70.2352V48.2429H198.296C201.348 48.2429 203.722 48.9509 205.417 50.3644C207.112 51.7778 207.958 53.721 207.958 56.1912C207.958 57.845 207.571 59.2662 206.797 60.4496C206.023 61.6331 204.926 62.5349 203.502 63.1525C202.081 63.7701 200.386 64.0801 198.42 64.0801H191.707L194.029 61.8812V70.2378H188.916V70.2352ZM194.029 62.4419L191.707 60.0233H198.139C199.687 60.0233 200.858 59.6874 201.653 59.0181C202.447 58.3489 202.845 57.4057 202.845 56.1912C202.845 54.9768 202.447 54.0388 201.653 53.3799C200.858 52.721 199.687 52.3902 198.139 52.3902H191.707L194.029 49.9716V62.4445V62.4419ZM202.906 70.2352L197.386 62.2558H202.845L208.365 70.2352H202.906Z" fill="#CA3872"/>
<path d="M208.616 70.2352L218.37 48.2429H223.388L233.238 70.2352H227.905L219.843 50.8191H221.881L213.819 70.2352H208.613H208.616ZM213.541 65.522L214.828 61.6564H226.184L227.503 65.522H213.543H213.541Z" fill="#CA3872"/>
<path d="M245.739 70.5298C244.259 70.5298 242.798 70.3308 241.359 69.9354C239.919 69.5401 238.681 68.9664 237.649 68.2145L239.566 64.4677C240.376 65.0569 241.315 65.5297 242.38 65.8837C243.446 66.2403 244.535 66.4161 245.652 66.4161C246.887 66.168 247.863 66.168 248.572 65.6693C249.282 65.1706 249.638 64.4962 249.638 63.6434C249.638 62.7907 249.323 62.1912 248.693 61.7235C248.064 61.2558 247.05 61.0233 245.652 61.0233H243.43V57.7933L249.331 51.0285L249.877 52.7959H238.715V48.8347H253.621V52.0336L247.721 58.7675L245.226 57.336H246.655C249.271 57.336 251.252 57.9251 252.602 59.1034C253.951 60.2817 254.624 61.7856 254.624 63.6124C254.624 64.8321 254.304 65.969 253.667 67.0259C253.027 68.0827 252.06 68.9303 250.762 69.5711C249.465 70.2119 247.79 70.5298 245.742 70.5298H245.739Z" fill="#303A69"/>
<path d="M265.341 70.5297C263.393 70.5297 261.711 70.1292 260.292 69.3256C258.873 68.5245 257.772 67.3359 256.993 65.7597C256.211 64.186 255.821 62.261 255.821 59.9871C255.821 57.509 256.283 55.416 257.204 53.7106C258.128 52.0052 259.405 50.7054 261.038 49.8114C262.671 48.9173 264.562 48.4703 266.711 48.4703C267.825 48.4703 268.901 48.5969 269.936 48.8501C270.97 49.1034 271.863 49.4651 272.614 49.9328L270.79 53.5581C270.201 53.1525 269.572 52.8734 268.904 52.7209C268.236 52.5685 267.534 52.4935 266.804 52.4935C264.98 52.4935 263.52 53.0568 262.423 54.1835C261.327 55.3101 260.78 56.9612 260.78 59.1344C260.78 59.5013 260.79 59.907 260.811 60.354C260.831 60.801 260.891 61.2481 260.994 61.6951L259.624 60.416C260.008 59.6227 260.506 58.9587 261.115 58.4212C261.724 57.8837 262.449 57.4754 263.29 57.2015C264.131 56.9276 265.06 56.7907 266.074 56.7907C267.451 56.7907 268.69 57.0646 269.786 57.6124C270.88 58.1602 271.757 58.9328 272.417 59.9276C273.075 60.9225 273.406 62.0904 273.406 63.4315C273.406 64.8734 273.05 66.1292 272.34 67.1938C271.631 68.261 270.668 69.0827 269.451 69.6615C268.233 70.2403 266.866 70.5297 265.344 70.5297H265.341ZM265.068 66.8424C265.756 66.8424 266.37 66.7158 266.907 66.4625C267.444 66.2093 267.864 65.8372 268.168 65.3514C268.473 64.8656 268.625 64.3049 268.625 63.677C268.625 62.7028 268.295 61.9251 267.637 61.3462C266.977 60.7674 266.102 60.478 265.006 60.478C264.276 60.478 263.636 60.6202 263.089 60.9044C262.542 61.1886 262.111 61.5711 261.796 62.0465C261.482 62.5245 261.324 63.0775 261.324 63.708C261.324 64.2971 261.476 64.8295 261.781 65.3075C262.085 65.7855 262.511 66.1602 263.058 66.4341C263.605 66.708 264.276 66.845 265.065 66.845L265.068 66.8424Z" fill="#303A69"/>
<path d="M283.727 70.5298C281.983 70.5298 280.428 70.0982 279.058 69.2352C277.688 68.3721 276.604 67.1241 275.802 65.4884C275 63.8527 274.6 61.8579 274.6 59.5013C274.6 57.1447 275 55.1499 275.802 53.5142C276.602 51.8786 277.688 50.6305 279.058 49.7675C280.428 48.9044 281.983 48.4729 283.727 48.4729C285.471 48.4729 287.058 48.9044 288.428 49.7675C289.798 50.6305 290.881 51.8812 291.684 53.5142C292.483 55.1499 292.886 57.1447 292.886 59.5013C292.886 61.8579 292.486 63.8527 291.684 65.4884C290.881 67.1241 289.798 68.3721 288.428 69.2352C287.058 70.0982 285.492 70.5298 283.727 70.5298ZM283.727 66.385C284.558 66.385 285.283 66.1473 285.902 65.6693C286.521 65.1913 287.006 64.4471 287.362 63.429C287.716 62.4135 287.894 61.1034 287.894 59.4987C287.894 57.8941 287.716 56.584 287.362 55.5685C287.006 54.553 286.521 53.8062 285.902 53.3282C285.283 52.8502 284.558 52.6124 283.727 52.6124C282.897 52.6124 282.226 52.8502 281.599 53.3282C280.97 53.8062 280.474 54.553 280.108 55.5685C279.742 56.584 279.561 57.8941 279.561 59.4987C279.561 61.1034 279.744 62.4135 280.108 63.429C280.474 64.4445 280.97 65.1913 281.599 65.6693C282.229 66.1473 282.938 66.385 283.727 66.385Z" fill="#303A69"/>
<path d="M300.471 56.783C299.302 56.783 298.231 56.5039 297.259 55.9432C296.286 55.3825 295.512 54.6331 294.942 53.6951C294.369 52.7571 294.085 51.7029 294.085 50.5323C294.085 49.3618 294.372 48.3024 294.942 47.3514C295.515 46.4005 296.286 45.6512 297.259 45.1034C298.231 44.5556 299.302 44.2817 300.471 44.2817C301.639 44.2817 302.746 44.5556 303.719 45.1034C304.691 45.6512 305.465 46.4005 306.035 47.3514C306.608 48.3024 306.892 49.3618 306.892 50.5323C306.892 51.7029 306.605 52.7571 306.035 53.6951C305.463 54.6331 304.691 55.3825 303.719 55.9432C302.746 56.5039 301.662 56.783 300.471 56.783ZM300.507 53.9303C301.139 53.9303 301.711 53.7778 302.222 53.4729C302.733 53.168 303.136 52.7675 303.427 52.2662C303.719 51.7675 303.866 51.1887 303.866 50.5297C303.866 49.8708 303.719 49.2817 303.427 48.7571C303.136 48.2326 302.733 47.8243 302.222 47.5323C301.711 47.2403 301.139 47.093 300.507 47.093C299.875 47.093 299.266 47.2403 298.755 47.5323C298.244 47.8243 297.842 48.2274 297.55 48.739C297.259 49.2507 297.112 49.8476 297.112 50.5297C297.112 51.2119 297.259 51.8036 297.55 52.3024C297.842 52.8011 298.244 53.199 298.755 53.491C299.266 53.783 299.849 53.9303 300.507 53.9303Z" fill="#71AA4A"/>
<path d="M17.2462 70.8734C21.828 72.7856 26.4098 74.6977 30.9915 76.6098L38.197 91.3489C39.6417 93.907 41.0864 96.4651 42.5311 99.0259C41.7262 98.8786 40.9187 98.7313 40.1138 98.584C34.6368 97.367 29.5056 95.5452 24.6374 92.7726C21.1082 90.7649 18.1904 88.1938 15.2339 85.4419C12.0091 82.4445 9.36481 79.062 7.17969 75.4238C10.536 73.907 13.8924 72.3902 17.2462 70.8734Z" fill="#B2CD3F"/>
<path d="M87.6008 15.0853L63.7451 18.6873C56.8724 16.5194 49.654 16.2248 42.7246 18.2507L42.3325 17.491L39.6959 13.8476L68.9254 3.24548C75.9502 5.70543 82.454 9.76228 87.6033 15.0879L87.6008 15.0853Z" fill="#FDC635"/>
<path d="M17.8679 48.1757C17.3158 48.6512 1.2151 60.0129 1.2151 60.0129C-0.247665 54.8527 -0.214128 45.7287 1.00871 40.155C2.1361 35.0155 3.52147 29.907 6.17353 25.5607C10.0717 33.0982 13.9698 40.6357 17.8653 48.1731L17.8679 48.1757Z" fill="#2E9AD6"/>
<path d="M68.9228 3.2429C62.8292 5.40311 56.7047 7.60724 50.5492 9.85272C46.9143 11.1783 43.2947 12.5116 39.6933 13.845C37.8719 11.8631 36.0532 9.88373 34.2318 7.90181L30.8832 3.69768C43.1348 -1.00774 56.6531 -1.24806 68.9228 3.2429Z" fill="#FDEB34"/>
<path d="M30.8832 3.69769C30.8832 3.69769 37.8719 11.8656 39.6933 13.845C30.5194 17.0956 10.5283 24.2197 10.5283 24.2197L7.66467 23.1189C12.9765 14.4238 21.3765 7.34627 30.8832 3.69769Z" fill="#A93A3B"/>
<path d="M19.114 50.5892C19.3461 55.9354 20.6696 61.1731 22.9863 66.0801L23.8738 67.6176C23.915 67.7132 17.2462 70.8734 17.2462 70.8734C16.8669 71.0362 2.87392 65.8656 2.87392 65.8656C2.67269 65.2403 2.47663 64.6047 2.28314 63.9535C1.88326 62.6072 1.52983 61.292 1.21509 60.0129C6.76689 56.0672 12.3161 52.1215 17.8679 48.1757C18.2833 48.9793 18.6986 49.783 19.1165 50.5892H19.114Z" fill="#30A7E0"/>
<path d="M49.1045 82.814C50.9027 83.5401 57.4167 86.4445 58.8743 87.1731L58.7428 87.2584L42.5311 99.0259C42.4047 98.9948 38.197 91.3489 38.197 91.3489L30.9915 76.6098L32.1292 76.4212C37.1599 79.9897 43.0161 82.0569 49.1045 82.814Z" fill="#0A9750"/>
<path d="M58.7428 87.2558L76.732 94.7984C68.2882 98.6692 58.8021 100.331 49.3264 99.8372C47.1516 99.7235 44.2003 99.4212 42.5311 99.0232L58.7428 87.2558Z" fill="#2E9AD6"/>
<path d="M39.6933 13.845C40.7794 15.292 41.863 16.7364 42.9491 18.1835C40.4079 18.8915 36.5769 20.2843 32.573 23.137C28.6671 25.9199 26.1286 28.9974 24.6271 31.1344C23.977 30.8605 14.5761 26.2507 10.5283 24.2222C20.2491 20.7649 29.9699 17.3049 39.6933 13.8476V13.845Z" fill="#E73D3F"/>
<path d="M10.5308 24.2222L24.6296 31.1344C21.0101 36.3669 18.8431 44.261 19.1165 50.5892L6.17609 25.5633C6.96294 25.3153 9.86525 24.4212 10.5308 24.2222Z" fill="#156AB3"/>
<path d="M90.9649 44.646L91.5505 63.9638L76.8248 57.2119C76.8248 57.1214 76.8996 52.5297 76.9383 50.3256C81.613 48.4315 86.2902 46.5401 90.9649 44.646Z" fill="#FDEB34"/>
<path d="M76.7836 75.1835L76.732 94.7985L58.7428 87.2558L58.8769 87.1706L69.5987 79.323L76.6236 74.7054L76.7836 75.1835Z" fill="#96348B"/>
<path d="M92.0948 83.2222C90.3586 85.2015 88.0316 87.5168 85.0287 89.7829C82.0051 92.0646 79.1209 93.6692 76.7319 94.7984C76.6958 88.1008 76.6597 81.4005 76.6236 74.7028C77.4853 75.2015 78.3469 75.7002 79.2086 76.1964C83.504 78.5375 87.7994 80.8785 92.0948 83.2196V83.2222Z" fill="#E83084"/>
<path d="M92.0948 83.2222C89.3189 81.8269 86.4682 80.3282 83.5608 78.7132C81.1589 77.3798 78.8474 76.0413 76.6236 74.7028C81.5975 71.1214 86.574 67.5426 91.5479 63.9612L92.0948 83.2222Z" fill="#E73D3F"/>
<path d="M77.0622 43.6796C77.0622 43.6796 76.9925 50.1292 76.9358 50.323L69.124 53.1188L53.1471 45.0232L51.9294 44.031L77.0596 43.6821L77.0622 43.6796Z" fill="#FDC635"/>
<path d="M51.932 44.031C57.7831 47.1189 63.6341 50.2093 69.4852 53.2972C65.9869 54.6796 62.4706 56.0568 58.9337 57.4315C56.6789 58.3075 54.4293 59.1783 52.1822 60.0413C52.1023 60.0233 52.0094 59.9922 51.9165 59.9302C51.5605 59.6899 51.5528 59.2145 51.5528 59.1499L51.2974 44.7674C51.2974 44.739 51.2974 44.3127 51.6198 44.1189C51.7385 44.0491 51.8572 44.0336 51.932 44.031Z" fill="#96348B"/>
<path d="M91.5505 63.9639C86.5766 67.5452 81.6001 71.1241 76.6262 74.7055C76.6932 68.8734 76.7603 63.044 76.8274 57.2119C81.7368 59.4626 86.6437 61.7132 91.5531 63.9639H91.5505Z" fill="#A93A3B"/>
<path d="M87.6008 15.0853C87.6291 15.1137 87.8949 15.3824 87.8123 15.6537C87.802 15.6873 87.7865 15.7261 87.7555 15.7674C84.572 19.2196 81.386 22.6744 78.2024 26.1266C78.125 26.2119 78.0451 26.2661 77.978 26.2997C77.4414 26.5633 76.7732 26.0362 76.7397 26.0077C72.8777 22.5607 68.4661 20.2326 63.7451 18.6873L87.6008 15.0853Z" fill="#DD3E8E"/>
<path d="M76.8532 56.9406L76.8093 59.6848L52.1823 60.0388C57.8295 57.7313 63.4793 55.4264 69.1266 53.1189C69.5935 53.1137 75.522 56.1344 76.8532 56.9406Z" fill="#DD3E8E"/>
<path d="M17.2461 70.8734C17.0914 70.9923 10.3786 74.0259 7.17964 75.4238C5.3815 72.429 3.83876 69.2636 2.8739 65.8657C2.8739 65.8657 16.8669 71.0362 17.2461 70.8734Z" fill="#0A9750"/>
<path d="M90.9649 44.646C86.2902 46.5401 81.613 48.4315 76.9384 50.3256C76.9796 48.1111 77.0209 45.8966 77.0648 43.6822L89.8969 43.3773C90.3741 43.4186 90.5908 43.584 90.7018 43.7287C90.9494 44.0491 90.9675 44.6486 90.9675 44.6486L90.9649 44.646Z" fill="#FFDE28"/>
<path d="M69.5987 79.323C65.9792 81.969 62.3623 84.6124 58.7427 87.2584C55.5309 85.7778 52.3164 84.2972 49.1045 82.814C51.5992 83.0129 54.7672 83.0491 58.3867 82.553C62.0733 82.0465 65.1665 81.137 67.5426 80.2532C68.2288 79.9432 68.9124 79.6331 69.5987 79.323Z" fill="#B2CD3F"/>
<path d="M32.1292 76.4186L30.9915 76.6072C26.4046 74.6951 21.8177 72.7855 17.2307 70.8734C18.2239 70.2868 19.3126 69.6925 20.4968 69.1111C21.6758 68.5323 22.8057 68.0388 23.8712 67.615C25.3546 70.186 27.2353 72.4264 29.6242 74.3747L32.1267 76.416L32.1292 76.4186Z" fill="#304281"/>
<path d="M10.5309 24.2222L6.17352 25.5633L7.66725 23.1215L10.5309 24.2222Z" fill="#28386C"/>
<path d="M76.9357 50.3256L76.8532 56.9405L69.1266 53.1188L76.9357 50.3256Z" fill="#E52025"/>
<path d="M95.2474 83.2223C94.7779 82.9458 94.4915 82.4367 94.5019 81.8915C94.5096 81.3437 94.8166 80.8398 95.3016 80.5814C103.929 80.5814 112.558 80.5866 121.185 80.5892C120.607 81.4677 120.029 82.3463 119.454 83.2248" fill="#FFDE28"/>
<path d="M264.309 83.2171C265 82.3385 265.692 81.46 266.383 80.5814H291.831C292.372 80.7959 292.731 81.3179 292.736 81.8993C292.741 82.4677 292.403 82.9871 291.882 83.2171" fill="#E52025"/>
<path d="M196.96 83.2223C197.597 82.3541 198.234 81.4858 198.869 80.6176H220.024C219.311 81.4807 218.599 82.3411 217.887 83.2042" fill="#3D4593"/>
<path d="M119.15 83.2042C119.769 82.3308 120.385 81.4548 121.004 80.5814H140.962C140.322 81.4548 139.68 82.3308 139.04 83.2042" fill="#EADE20"/>
<path d="M242.889 83.2171C243.699 82.3385 244.509 81.46 245.319 80.5814H266.608C265.841 81.46 265.075 82.3385 264.306 83.2171" fill="#C9197A"/>
<path d="M138.878 83.2093L140.8 80.5866C146.7 80.5866 152.6 80.5866 158.5 80.584C157.976 81.4625 157.452 82.3411 156.929 83.2222" fill="#4AAD41"/>
<path d="M156.689 83.2145C157.274 82.3514 157.863 81.491 158.448 80.6279C164.931 80.6099 171.414 80.5918 177.898 80.5737C177.222 81.4574 176.548 82.3411 175.872 83.2248" fill="#0A9750"/>
<path d="M217.844 83.2042C218.556 82.3411 219.268 81.4806 219.98 80.6176C228.426 80.6047 236.875 80.5943 245.321 80.5814C244.511 81.46 243.701 82.3385 242.891 83.2171" fill="#96348B"/>
<path d="M175.581 83.2171C176.234 82.3359 176.884 81.4548 177.536 80.5737C184.649 80.5892 191.759 80.6047 198.872 80.6176C198.234 81.4858 197.597 82.354 196.962 83.2222" fill="#2E9AD6"/>
</g>
<defs>
<clipPath id="clip0_2059_983">
<rect width="307" height="100" fill="white"/>
</clipPath>
</defs>
</svg>
